<?xml version="1.0" standalone="no"?>
<!DOCTYPE svg PUBLIC "-//W3C//DTD SVG 20010904//EN"
 "http://www.w3.org/TR/2001/REC-SVG-20010904/DTD/svg10.dtd">
<svg version="1.0" xmlns="http://www.w3.org/2000/svg"
 width="500.000000pt" height="500.000000pt" viewBox="0 0 500.000000 500.000000"
 preserveAspectRatio="xMidYMid meet">

<g transform="translate(0.000000,500.000000) scale(0.100000,-0.100000)"
fill="#000000" stroke="none">
<path d="M1373 4259 c-6 -8 -16 -45 -22 -84 -19 -113 -51 -291 -76 -420 -13
-66 -27 -142 -30 -170 -11 -79 -11 -81 -50 -79 -45 2 -95 -15 -125 -45 -14
-13 -19 -20 -11 -16 7 4 4 -6 -8 -22 -12 -16 -23 -36 -25 -44 -5 -30 -82 -159
-98 -164 -18 -6 -82 30 -112 64 -11 11 -30 21 -43 21 -13 0 -41 9 -61 19 -35
18 -43 18 -96 6 -32 -8 -64 -22 -72 -32 -19 -26 -17 -98 5 -141 10 -20 25 -57
32 -82 12 -40 13 -42 17 -17 2 15 9 27 15 27 6 0 39 -27 73 -61 l61 -61 -42
-98 c-43 -99 -65 -176 -65 -231 0 -23 6 -32 26 -40 15 -5 35 -7 44 -4 25 8 84
58 87 72 6 26 116 158 139 166 31 11 126 -29 103 -43 -15 -10 -17 -136 -12
-645 2 -218 3 -446 1 -575 -1 -41 -1 -88 -1 -103 0 -39 34 -69 84 -76 38 -5
44 -10 51 -38 9 -35 45 -53 108 -53 63 0 65 7 65 246 0 160 3 216 13 226 8 8
39 13 81 13 62 0 73 3 116 34 l47 34 -2 -124 c-5 -220 -3 -247 21 -260 12 -6
42 -14 68 -18 43 -6 46 -8 51 -41 5 -33 8 -35 55 -44 33 -6 63 -5 92 3 66 17
73 15 73 -22 0 -18 5 -38 12 -45 12 -12 143 -17 172 -6 13 5 15 31 15 171 1
91 2 168 4 169 2 2 20 -40 41 -94 54 -144 67 -162 115 -162 36 0 42 -4 63 -42
l23 -43 65 -1 c36 0 75 3 88 7 l22 9 0 442 c0 259 5 508 12 601 l12 157 39 0
c30 0 38 -4 36 -17 -4 -41 2 -63 16 -63 15 0 20 -213 20 -890 0 -85 1 -163 3
-172 4 -30 32 -48 76 -48 40 0 42 -2 56 -42 l15 -43 83 0 c62 0 85 4 93 15 6
10 9 223 7 593 l-3 578 23 6 c12 3 31 3 42 0 36 -9 50 18 50 99 l0 74 -40 0
-40 0 0 54 c0 77 -12 86 -114 86 l-83 0 -8 129 c-3 71 -6 312 -6 537 1 225 1
424 0 443 0 41 15 53 57 47 49 -7 57 4 62 93 l5 81 -47 0 -46 0 2 61 c1 43 -2
63 -13 70 -8 5 -120 9 -249 9 -180 -1 -239 -4 -252 -14 -15 -11 -18 -29 -18
-105 0 -103 -3 -99 83 -110 49 -6 52 -8 49 -32 -2 -15 4 -34 15 -44 16 -16 18
-55 23 -449 4 -237 4 -458 0 -491 -7 -64 3 -139 21 -161 7 -8 31 -14 59 -14
43 0 48 -3 52 -25 5 -24 3 -25 -38 -25 -24 0 -55 -5 -69 -12 -24 -11 -26 -17
-23 -55 2 -30 -1 -43 -9 -43 -9 0 -13 15 -13 44 0 37 -5 48 -27 66 -26 21 -36
22 -127 17 -67 -4 -102 -10 -107 -19 -5 -7 -9 -114 -8 -236 0 -123 -1 -226 -3
-228 -7 -6 -86 216 -101 281 -13 57 -15 60 -45 63 -28 3 -32 8 -37 40 -13 86
-34 100 -150 101 -92 1 -116 -16 -109 -80 l5 -44 -16 28 c-17 29 -25 31 -120
27 -75 -3 -103 -13 -107 -41 -5 -37 -24 -32 -36 8 -15 48 -29 65 -72 92 l-35
21 38 0 37 0 0 130 c0 117 2 132 20 150 41 41 55 28 75 -67 10 -49 22 -94 28
-100 5 -7 31 -13 57 -13 48 0 48 0 62 -42 l13 -43 89 -3 88 -3 -6 33 c-3 18
-9 51 -12 73 -6 39 -6 40 11 18 13 -19 26 -23 71 -23 54 0 54 0 52 -29 -3 -46
16 -61 81 -61 32 0 106 -5 166 -11 132 -13 138 -10 143 89 4 74 -8 97 -58 104
-22 3 -25 8 -28 50 -3 53 -23 73 -78 84 l-31 6 -8 411 c-4 227 -4 429 0 450 9
47 -6 67 -51 67 -34 0 -34 0 -34 48 0 79 -9 84 -130 83 -59 -1 -110 -6 -117
-13 -11 -9 -12 -61 -8 -267 8 -356 8 -343 7 -571 -1 -113 0 -234 3 -270 5 -64
5 -65 -9 -30 -8 19 -15 53 -15 75 -1 22 -10 87 -22 145 -11 58 -27 157 -35
220 -23 175 -32 232 -43 270 -5 19 -12 78 -16 130 -4 52 -13 122 -21 155 -7
33 -14 74 -14 92 0 30 -3 32 -37 35 l-38 3 -5 57 c-3 31 -9 60 -13 64 -4 4
-60 10 -125 12 -91 3 -120 1 -129 -9z m218 -94 c4 -27 11 -68 18 -90 6 -22 11
-68 11 -103 0 -35 6 -95 14 -135 8 -40 19 -110 26 -157 6 -47 24 -162 41 -256
16 -94 29 -186 29 -206 0 -19 7 -58 16 -88 8 -29 17 -80 19 -114 1 -34 6 -74
10 -90 l8 -28 -64 7 c-35 4 -66 9 -67 10 -2 2 -12 39 -22 82 -45 199 -51 207
-151 201 -95 -5 -119 -28 -119 -112 0 -34 -3 -84 -6 -112 l-6 -51 -65 62 -65
61 7 68 c5 47 14 76 29 94 12 15 28 43 36 62 7 19 18 41 23 48 5 7 11 22 12
35 2 12 6 29 9 37 4 9 -6 29 -25 50 l-31 34 20 120 c33 190 102 579 107 604 5
22 9 23 93 20 l87 -3 6 -50z m1253 -23 c3 -5 2 -34 -1 -65 l-6 -57 -41 0 c-75
0 -70 41 -67 -557 1 -296 2 -545 3 -553 1 -8 0 -30 0 -48 l-2 -33 -72 3 c-72
3 -72 3 -80 35 -5 18 -4 58 0 89 14 86 -5 1036 -21 1046 -6 4 -37 10 -67 13
-82 9 -80 8 -80 75 l0 60 214 0 c118 0 217 -4 220 -8z m-754 -285 c0 -145 3
-380 7 -522 8 -308 5 -301 107 -291 34 4 68 2 76 -3 18 -13 20 -115 2 -133 -9
-9 -39 -9 -134 0 -68 7 -140 12 -160 12 l-38 0 -2 78 c-2 42 -4 109 -5 147 -1
39 -1 149 -1 245 1 96 0 189 0 205 -1 17 -4 139 -8 272 l-6 242 73 4 c41 1 77
4 82 5 4 1 7 -117 7 -261z m-928 -1127 c12 0 23 -11 29 -30 12 -34 29 -40 29
-11 0 40 20 30 37 -19 10 -27 21 -50 26 -50 5 0 5 25 2 55 l-7 55 28 0 c46 0
101 -19 132 -45 46 -38 52 -85 52 -380 0 -297 -3 -313 -65 -361 -31 -23 -50
-29 -116 -33 -112 -9 -108 0 -109 -262 0 -175 -3 -218 -14 -222 -20 -8 -94 4
-105 17 -5 6 -6 44 -2 86 4 41 5 86 1 100 -4 14 -5 95 -3 180 6 197 6 174 -1
453 -3 131 -8 242 -11 247 -3 5 -1 11 5 15 12 8 13 52 1 59 -8 6 -5 114 5 145
3 9 14 12 35 7 18 -3 40 -6 51 -6z m844 -97 c7 -34 28 -101 47 -150 20 -48 59
-159 89 -247 39 -117 59 -163 75 -173 56 -37 64 0 72 367 l6 265 80 0 80 0 0
-85 c-1 -47 -6 -173 -13 -280 -6 -107 -12 -356 -12 -552 l0 -358 -69 0 -69 0
-17 43 c-78 193 -165 434 -165 458 0 19 -5 29 -15 29 -8 0 -21 14 -30 30 -42
82 -56 10 -54 -294 0 -142 -2 -260 -5 -264 -4 -3 -35 -6 -70 -7 l-64 0 -7 380
c-4 209 -10 495 -15 635 -4 140 -5 259 -3 263 3 4 37 7 76 5 l70 -3 13 -62z
m1014 13 c0 -18 -3 -47 -6 -64 -6 -29 -10 -31 -53 -34 -38 -2 -48 -7 -57 -28
-7 -17 -9 -190 -4 -575 3 -302 4 -558 2 -567 -4 -15 -16 -18 -72 -18 -57 0
-69 3 -73 18 -2 9 -5 215 -6 457 0 242 -4 497 -7 568 -7 144 1 132 -107 146
l-52 6 -2 63 -2 62 220 0 219 0 0 -34z m-1281 -183 c-1 -98 -7 -186 -12 -197
-6 -12 -5 -21 1 -25 6 -4 12 -130 17 -316 3 -170 8 -338 10 -372 l4 -63 -54 0
c-29 0 -56 4 -59 9 -7 10 -15 194 -21 481 -11 456 -17 575 -31 583 -19 11 -18
28 1 21 11 -5 14 0 13 17 -3 22 1 24 57 30 33 3 64 6 68 7 5 1 7 -78 6 -175z
m58 100 c-3 -10 -5 -2 -5 17 0 19 2 27 5 18 2 -10 2 -26 0 -35z"/>
<path d="M1447 3652 c-10 -27 -22 -87 -27 -133 -5 -46 -14 -104 -20 -128 -8
-31 -8 -47 0 -55 6 -6 44 -12 84 -14 73 -4 73 -4 85 26 11 25 8 55 -15 191
l-28 161 -31 0 c-28 0 -33 -5 -48 -48z"/>
<path d="M1234 2602 c-31 -20 -35 -56 -35 -268 1 -248 6 -289 35 -309 27 -20
81 -19 101 1 60 60 78 188 55 391 -11 104 -15 115 -44 147 -31 34 -88 54 -112
38z m114 -337 c0 -60 -3 -119 -8 -130 -4 -11 -8 48 -8 140 0 93 4 147 8 130 4
-16 8 -79 8 -140z"/>
<path d="M3111 4256 c-7 -8 -18 -52 -26 -98 -29 -177 -67 -385 -75 -418 -15
-56 -51 -298 -59 -390 -4 -47 -25 -168 -45 -269 -46 -226 -45 -231 43 -231
l60 0 3 -42 3 -43 101 -3 101 -3 7 32 c3 17 6 76 6 130 0 87 3 102 21 120 34
34 52 21 66 -46 29 -137 28 -135 83 -135 39 0 52 -4 60 -19 19 -37 12 -41 -73
-41 -52 0 -89 -5 -99 -12 -10 -9 -23 -60 -37 -148 -45 -272 -61 -363 -66 -370
-8 -13 -55 -328 -55 -369 0 -23 -18 -132 -40 -241 -57 -282 -57 -280 35 -280
l64 0 -2 -43 -2 -42 108 -3 107 -3 0 121 c0 141 13 179 61 180 13 0 21 -19 33
-78 26 -119 27 -120 87 -124 52 -3 52 -3 63 -43 l12 -40 88 -3 88 -3 -6 38
c-4 21 -11 72 -15 113 -5 41 -14 91 -20 110 -6 19 -11 51 -11 70 0 20 -11 94
-24 165 -14 72 -27 155 -29 185 -8 79 -27 196 -43 261 -8 30 -14 88 -14 127
l0 72 42 -30 c41 -30 141 -65 209 -74 84 -10 255 43 337 106 116 87 162 158
162 250 0 82 -44 270 -81 346 -52 107 -170 183 -284 184 -125 0 -313 -100
-394 -212 l-28 -39 -12 41 c-7 23 -15 66 -17 97 -3 31 -16 115 -29 187 -13 72
-26 155 -29 185 -3 30 -12 92 -20 139 -9 47 -21 130 -27 185 -5 55 -15 127
-21 160 -6 33 -14 83 -17 110 -6 47 -8 50 -36 53 -41 5 -46 12 -53 73 -8 64
-14 67 -153 68 -73 1 -100 -3 -108 -13z m224 -123 c10 -49 21 -135 25 -193 3
-58 9 -111 13 -117 7 -12 26 -130 33 -204 2 -25 13 -97 24 -160 11 -63 25
-145 31 -184 5 -38 15 -95 21 -125 6 -30 14 -91 18 -135 4 -44 11 -88 15 -99
8 -17 4 -18 -56 -11 -35 4 -67 10 -70 14 -3 3 -18 59 -33 125 -18 72 -36 126
-47 137 -23 23 -113 26 -164 5 -44 -19 -55 -58 -55 -195 l0 -104 -82 7 c-45 4
-83 8 -84 9 -8 9 57 301 70 316 9 10 13 21 9 24 -17 18 14 287 57 492 22 107
67 358 76 433 l7 52 87 0 87 0 18 -87z m758 -970 c-7 -2 -19 -2 -25 0 -7 3 -2
5 12 5 14 0 19 -2 13 -5z m31 -70 c49 -14 71 -27 112 -69 74 -76 106 -145 103
-226 -8 -220 -120 -363 -300 -385 -92 -11 -196 -5 -232 14 -102 52 -177 140
-177 207 0 14 -5 26 -11 26 -6 0 -9 21 -7 53 3 45 6 52 26 55 24 4 29 30 12
63 -15 26 16 82 77 140 60 58 128 98 207 120 78 23 116 23 190 2z m-627 -368
c2 -11 10 -54 18 -95 8 -41 19 -120 24 -175 5 -55 16 -147 25 -205 9 -58 22
-136 28 -175 6 -38 21 -125 34 -193 13 -68 21 -129 18 -137 -3 -7 4 -49 15
-92 11 -43 22 -111 25 -151 l5 -73 -62 7 c-34 4 -63 7 -63 8 -1 0 -15 57 -32
125 -17 68 -39 132 -48 142 -32 35 -174 19 -200 -22 -5 -8 -11 -70 -14 -139
l-5 -125 -79 2 c-44 2 -81 5 -84 8 -2 2 8 68 23 147 20 104 33 149 48 166 13
14 16 22 7 22 -23 0 6 252 60 520 16 80 56 305 76 428 l5 33 87 -3 c78 -3 87
-5 89 -23z"/>
<path d="M3181 3639 c-12 -35 -21 -83 -21 -108 0 -25 -8 -76 -17 -113 -22 -86
-16 -93 80 -93 103 0 105 6 70 212 l-28 158 -31 3 c-31 3 -33 1 -53 -59z"/>
<path d="M3983 2973 c-15 -6 -17 -45 -3 -92 12 -42 27 -53 53 -39 17 9 19 17
14 60 -8 68 -26 87 -64 71z"/>
<path d="M3813 2913 c-16 -6 -16 -34 -1 -84 9 -33 15 -39 40 -39 20 0 28 5 29
18 5 79 -24 123 -68 105z"/>
<path d="M4147 2883 c-13 -3 -15 -10 -10 -31 5 -15 8 -55 8 -89 0 -52 -5 -68
-30 -104 -61 -87 -187 -118 -264 -65 -72 50 -101 101 -101 179 0 22 -4 27 -26
27 -26 0 -26 -1 -22 -63 5 -78 32 -132 87 -174 79 -61 199 -75 284 -34 98 48
160 206 125 322 -11 38 -16 41 -51 32z"/>
<path d="M3356 2174 c-10 -30 -22 -92 -27 -137 -6 -45 -13 -100 -16 -121 -7
-52 12 -66 93 -66 59 0 62 1 74 31 11 25 9 51 -9 167 -32 193 -28 182 -65 182
-30 0 -33 -3 -50 -56z"/>
<path d="M3842 4120 c-45 -32 -92 -112 -92 -155 0 -36 26 -83 63 -114 46 -39
67 -50 121 -57 38 -5 50 -12 54 -28 6 -20 6 -20 12 3 3 14 11 26 18 29 9 3 12
-26 13 -115 2 -184 16 -201 18 -20 l1 157 35 51 c19 28 37 67 40 87 3 20 10
50 15 67 9 26 7 32 -18 51 -15 12 -30 20 -33 18 -4 -2 -10 3 -13 12 -4 10 -13
13 -26 9 -11 -3 -20 -2 -20 3 0 5 -6 9 -12 10 -7 0 -31 5 -53 11 -61 16 -79
13 -123 -19z"/>
<path d="M3737 3789 c-34 -26 -67 -89 -67 -126 0 -35 42 -63 94 -63 33 0 36
-2 36 -30 0 -16 3 -30 8 -30 4 0 6 18 4 41 -4 34 -1 41 16 46 14 3 24 19 31
48 15 61 14 70 -11 99 -33 36 -78 42 -111 15z"/>
<path d="M1385 1350 c-3 -5 1 -10 9 -10 9 0 16 5 16 10 0 6 -4 10 -9 10 -6 0
-13 -4 -16 -10z"/>
<path d="M1426 1298 c-10 -5 -20 -7 -23 -4 -3 3 -23 -8 -43 -24 -21 -17 -46
-30 -56 -30 -16 0 -16 -2 -4 -10 12 -8 12 -10 -3 -16 -9 -3 -17 -15 -17 -25 0
-10 -7 -40 -17 -66 -20 -59 -19 -85 8 -139 11 -24 21 -55 22 -70 2 -20 12 -34
35 -47 37 -22 51 -25 113 -26 53 -1 65 -15 48 -58 -12 -32 -3 -76 14 -70 6 2
16 28 22 57 11 56 29 75 40 41 3 -11 1 -75 -6 -141 -8 -85 -9 -124 -1 -132 15
-15 35 1 28 24 -5 22 18 253 29 280 4 10 17 20 28 24 27 9 144 7 160 -3 7 -4
24 -6 39 -4 19 2 30 -4 38 -19 6 -11 16 -17 22 -14 6 4 59 8 117 9 61 1 115 6
128 13 12 7 44 15 70 18 26 2 59 9 73 14 57 20 246 29 703 32 315 3 329 2 343
-16 8 -11 14 -35 14 -53 0 -39 17 -43 30 -8 18 47 53 27 65 -37 7 -39 25 -52
25 -19 0 21 26 31 78 31 19 0 46 9 61 19 15 11 43 22 62 26 39 7 79 41 112 95
24 40 29 60 16 60 -5 0 -9 -5 -9 -11 0 -5 -5 -7 -11 -4 -6 4 -7 19 -4 36 4 18
2 29 -4 29 -6 0 -8 6 -5 14 3 8 -4 16 -20 20 -28 7 -36 36 -11 36 8 0 15 4 15
9 0 5 -10 7 -21 4 -14 -4 -26 0 -34 10 -7 10 -30 17 -60 19 -30 2 -50 8 -53
17 -3 8 0 11 7 7 7 -5 9 -1 5 8 -7 17 -20 21 -26 8 -1 -4 -18 -18 -36 -31 -25
-17 -36 -20 -46 -12 -17 14 -88 1 -94 -18 -3 -10 2 -11 19 -6 23 7 23 6 7 -10
-35 -37 -104 -44 -400 -40 -156 2 -313 6 -350 10 -42 4 -74 3 -87 -4 -12 -7
-88 -12 -195 -12 -171 -1 -206 4 -281 37 -80 35 -159 62 -168 57 -5 -3 -13 0
-17 7 -5 7 -34 17 -66 21 -32 4 -60 12 -62 18 -2 5 -9 8 -17 5 -7 -3 -22 3
-32 13 -11 11 -32 18 -56 18 -20 0 -37 3 -37 7 0 4 -7 5 -15 2 -8 -3 -30 3
-48 15 -36 22 -128 27 -161 9z"/>
<path d="M2040 1169 c0 -5 5 -7 10 -4 6 3 10 8 10 11 0 2 -4 4 -10 4 -5 0 -10
-5 -10 -11z"/>
<path d="M3278 1153 c7 -3 16 -2 19 1 4 3 -2 6 -13 5 -11 0 -14 -3 -6 -6z"/>
<path d="M3766 811 c-4 -5 -2 -12 3 -15 5 -4 12 -2 15 3 4 5 2 12 -3 15 -5 4
-12 2 -15 -3z"/>
<path d="M3635 790 c3 -5 8 -10 11 -10 2 0 4 5 4 10 0 6 -5 10 -11 10 -5 0 -7
-4 -4 -10z"/>
<path d="M1697 693 c3 -8 12 -12 20 -9 8 3 17 6 19 6 2 0 4 3 4 8 0 4 -11 8
-24 8 -18 1 -23 -2 -19 -13z"/>
<path d="M1840 700 c0 -5 7 -10 16 -10 8 0 12 5 9 10 -3 6 -10 10 -16 10 -5 0
-9 -4 -9 -10z"/>
</g>
</svg>
